<svg width="1000" height="1000" viewBox="0 0 1000 1000" fill="none" xmlns="http://www.w3.org/2000/svg">
<rect width="1000" height="1000" rx="200" fill="#3DE193"/>
<path d="M633.333 366.667H766.667C785.077 366.667 800 381.591 800 400V766.667L688.9 674.367C682.917 669.393 675.36 666.667 667.577 666.667H400C381.59 666.667 366.667 651.743 366.667 633.333V533.333M633.333 366.667V266.667C633.333 248.257 618.41 233.333 600 233.333H233.333C214.924 233.333 200 248.257 200 266.667V633.343L311.1 541.027C317.085 536.057 324.641 533.333 332.422 533.333H366.667M633.333 366.667V500C633.333 518.41 618.41 533.333 600 533.333H366.667" stroke="black" stroke-width="66.6667" stroke-linecap="round" stroke-linejoin="round"/>
</svg>
