<svg width="113" height="119" viewBox="0 0 113 119" fill="none" xmlns="http://www.w3.org/2000/svg">
<rect x="0.0771484" y="0.364502" width="112.27" height="118" rx="16" fill="url(#paint0_linear_17_65)"/>
<path d="M29.7326 62.4559C28.0253 60.7485 28.0253 57.9805 29.7326 56.2731L55.9858 30.02C57.6931 28.3127 60.4612 28.3127 62.1685 30.02L88.4216 56.2731C90.1289 57.9805 90.1289 60.7485 88.4216 62.4559L62.1685 88.7089C60.4612 90.4163 57.6931 90.4163 55.9858 88.7089L29.7326 62.4559Z" fill="#EE513B"/>
<path d="M50.6529 35.4365L47.9944 38.0951L54.8607 44.9614C54.5829 45.5574 54.4278 46.222 54.4278 46.9228C54.4278 48.9126 55.678 50.6103 57.4356 51.2733V68.0703C55.678 68.7333 54.4278 70.431 54.4278 72.4208C54.4278 74.988 56.509 77.0692 59.0763 77.0692C61.6435 77.0692 63.7247 74.988 63.7247 72.4208C63.7247 70.6169 62.6972 69.0529 61.1955 68.2824V51.2963L67.7591 57.8599C67.4949 58.4437 67.3479 59.0919 67.3479 59.7744C67.3479 62.3416 69.429 64.4228 71.9963 64.4228C74.5635 64.4228 76.6447 62.3416 76.6447 59.7744C76.6447 57.2071 74.5635 55.1259 71.9963 55.1259C71.4973 55.1259 71.0169 55.2045 70.5663 55.3499L63.5171 48.3007C63.6521 47.8654 63.7247 47.4025 63.7247 46.9228C63.7247 44.3555 61.6435 42.2743 59.0763 42.2743C58.5965 42.2743 58.1339 42.347 57.6984 42.482L50.6529 35.4365Z" fill="white"/>
<defs>
<linearGradient id="paint0_linear_17_65" x1="-42.4999" y1="-48.6266" x2="155.76" y2="136.916" gradientUnits="userSpaceOnUse">
<stop offset="0.151821" stop-color="#AEAEAE"/>
<stop offset="0.9375" stop-color="white"/>
</linearGradient>
</defs>
</svg>
