<svg width="113" height="114" viewBox="0 0 113 114" fill="none" xmlns="http://www.w3.org/2000/svg">
<rect x="0.0771484" y="0.364502" width="112.27" height="113" rx="16" fill="url(#paint0_linear_17_71)"/>
<path fill-rule="evenodd" clip-rule="evenodd" d="M56.5771 28.427C40.8675 28.427 28.1396 41.1426 28.1396 56.8361C28.1396 69.3892 36.289 80.0329 47.5868 83.7908C49.0087 84.0508 49.5287 83.1733 49.5287 82.4217C49.5287 81.7473 49.5043 79.9598 49.4881 77.5873C41.5784 79.3058 39.9128 73.7808 39.9128 73.7808C38.6168 70.4983 36.7521 69.6248 36.7521 69.6248C34.1725 67.8617 36.9471 67.8983 36.9471 67.8983C39.8031 68.1014 41.3062 70.8233 41.3062 70.8233C43.8412 75.1701 47.9606 73.9108 49.5815 73.1876C49.8375 71.3514 50.5728 70.1001 51.3853 69.3892C45.0721 68.6742 38.434 66.2367 38.434 55.3492C38.434 52.2495 39.5431 49.7104 41.359 47.7279C41.0665 47.0089 40.0915 44.1204 41.6434 40.2123C41.6434 40.2123 44.024 39.4445 49.4596 43.1211C51.7795 42.489 54.1728 42.1667 56.5771 42.1623C58.9943 42.1745 61.4278 42.4873 63.6987 43.1211C69.1262 39.4445 71.5109 40.2083 71.5109 40.2083C73.0628 44.1204 72.0878 47.0089 71.7953 47.7239C73.6153 49.7145 74.7203 52.2495 74.7203 55.3492C74.7203 66.2611 68.0659 68.6661 61.7325 69.3648C62.7521 70.2423 63.6622 71.977 63.6622 74.6298C63.6622 78.4242 63.6256 81.4873 63.6256 82.4217C63.6256 83.1814 64.1415 84.0629 65.5837 83.7867C71.2402 81.9005 76.1603 78.2831 79.6475 73.4464C83.1346 68.6097 85.0123 62.7988 85.0146 56.8361C85.0103 49.2979 82.012 42.0701 76.679 36.7425C71.3461 31.4149 64.1153 28.4238 56.5771 28.427Z" fill="#161514"/>
<defs>
<linearGradient id="paint0_linear_17_71" x1="-42.4999" y1="-46.5507" x2="147.727" y2="139.35" gradientUnits="userSpaceOnUse">
<stop stop-color="#5418FF"/>
<stop offset="1" stop-color="#9FB1F2"/>
</linearGradient>
</defs>
</svg>
