<svg width="1000" height="1000" viewBox="0 0 1000 1000" fill="none" xmlns="http://www.w3.org/2000/svg">
<rect width="1000" height="1000" rx="200" fill="#111928"/>
<g clip-path="url(#clip0_215_13)">
<path fill-rule="evenodd" clip-rule="evenodd" d="M500 900C720.914 900 900 720.914 900 500C900 279.086 720.914 100 500 100C279.086 100 100 279.086 100 500C100 720.914 279.086 900 500 900ZM500.001 866.666C702.505 866.666 866.667 702.504 866.667 500C866.667 297.495 702.505 133.333 500.001 133.333C297.496 133.333 133.334 297.495 133.334 500C133.334 702.504 297.496 866.666 500.001 866.666Z" fill="white"/>
<path d="M499.349 233.342C495.084 233.477 490.978 234.867 487.63 237.309L298.125 375.119C274.073 392.615 260 419.351 260 447.617V682.565C260 699.347 275.152 713.333 293.333 713.333H426.667C444.848 713.333 460 699.347 460 682.565V559.49C460 555.859 462.733 553.336 466.667 553.336H533.333C537.267 553.336 540 555.859 540 559.49V682.565C540 699.347 555.152 713.333 573.333 713.333H706.667C724.848 713.333 740 699.347 740 682.565V447.617C740 419.351 725.927 392.615 701.875 375.119L512.37 237.309C508.671 234.612 504.06 233.207 499.349 233.342ZM500 275.313L677.135 404.132C691.59 414.648 700 430.641 700 447.617V676.411H580V559.49C580 535.922 558.866 516.414 533.333 516.414H466.667C441.134 516.414 420 535.922 420 559.49V676.411H300V447.617C300 430.641 308.41 414.648 322.865 404.132L500 275.313Z" fill="white"/>
</g>
<defs>
<clipPath id="clip0_215_13">
<rect width="800" height="800" fill="white" transform="translate(100 100)"/>
</clipPath>
</defs>
</svg>
