<svg width="113" height="113" viewBox="0 0 113 113" fill="none" xmlns="http://www.w3.org/2000/svg">
<rect width="112.27" height="113" rx="16" fill="url(#paint0_linear_17_237)"/>
<g clip-path="url(#clip0_17_237)">
<path d="M89 56.5C89 74.448 74.448 89 56.5 89C39.9393 89 26.2717 76.6156 24.2572 60.6012C24.0867 59.2399 24 57.8699 24 56.5C24 53.9566 24.2919 51.4798 24.8439 49.104C28.1936 34.7197 41.0954 24 56.5 24C71.8671 24 84.7428 34.6647 88.1272 48.9971C88.578 50.8988 88.8526 52.8382 88.9538 54.7919C88.9855 55.3613 89 55.9306 89 56.5Z" fill="#F2F2F2"/>
<path d="M54.8757 59.1098V50.6589L47.5578 46.4364L40.2399 50.6589V59.1098L47.5578 63.3352L54.8757 59.1098Z" fill="#3B8739"/>
<path d="M83.6937 57.8266L88.4624 60.5809L83.6937 63.3352L76.3757 59.1098V50.6618L83.6937 46.4364L88.1272 48.9971C88.5781 50.8988 88.8526 52.8381 88.9538 54.7919L86.2428 56.3584V53.4162L83.6937 51.9451L81.1445 53.4162V56.3584L83.6937 57.8266Z" fill="#333333"/>
<path d="M85.1156 55.7052V54.0636L83.6965 53.2428L82.2745 54.0636V55.7052L83.6965 56.526L85.1156 55.7052Z" fill="#66A060"/>
<path d="M36.7832 50.6618V61.8035L31.9017 59.0202V53.3063L29.4653 51.8988L27.0289 53.3063V59.0173L24.2572 60.5983C24.0867 59.2399 24 57.8699 24 56.5C24 53.9566 24.2919 51.4798 24.8439 49.104L29.4653 46.4364L36.7832 50.6618Z" fill="#333333"/>
<path d="M47.5549 46.4335L54.8728 59.1069L47.5549 63.3324L40.2399 50.6589L47.5549 46.4335Z" fill="#6DA75D"/>
<path d="M40.2399 59.1098L42.7514 55.0115L40.2399 50.6589V59.1098Z" fill="#55A344"/>
<path d="M52.4336 54.8844L54.8729 50.6589L47.5579 46.4364L52.4336 54.8844Z" fill="#639D57"/>
<path d="M67.9971 36.6416V47.8526L65.5434 46.4364L58.2255 50.6618V59.1127L65.5434 63.3381L72.8613 59.1127V39.2456L67.9971 36.6416ZM67.9827 56.2919L65.5434 57.6994L63.1041 56.2919V53.4768L65.5434 52.0693L67.9827 53.4768V56.2919Z" fill="#333333"/>
<path d="M59.8208 69.5404C59.8208 69.5404 59.6763 68.3063 58.3555 68.3063C57.0346 68.3063 56.13 68.4797 56.13 69.2109C56.13 69.9421 58.6994 69.9421 59.6763 70.2312C60.6531 70.5173 61.5144 71.2659 61.0838 72.5867C60.6531 73.9075 59.3323 74.052 57.2919 74.052C55.2514 74.052 54.7919 72.3584 54.7919 71.6965H55.9422C55.9422 71.6965 55.7977 72.7312 57.1474 72.9017C58.4971 73.0723 59.789 73.1705 59.9624 72.1271C60.1936 70.7485 55.5953 71.4364 55.1936 70.0867C54.8526 68.945 55.0491 67.445 57.3468 67.2138C59.6445 66.9826 60.9075 67.9999 60.9075 69.5115L59.8208 69.5404Z" fill="#66A060"/>
<path d="M48.7196 74.9249L51.2601 76.3902C52.5375 77.1272 54.1329 76.2052 54.1329 74.7313V67.4307H53.0982V74.4422C53.0982 75.2457 52.2283 75.7515 51.5289 75.3469L49.7572 74.3237V66.8411L56.2369 63.1012L62.7167 66.8411V74.3237L56.2369 78.0636L54.3699 76.9856L53.1502 77.4769L56.2369 79.2573L63.7514 74.9191V66.2428L56.2369 61.9047L48.7225 66.2428L48.7196 74.9249Z" fill="#66A060"/>
</g>
<defs>
<linearGradient id="paint0_linear_17_237" x1="-32.0771" y1="-60.5357" x2="200.579" y2="191.682" gradientUnits="userSpaceOnUse">
<stop stop-color="#61E1C2"/>
<stop offset="0.943124" stop-color="#E5FF46"/>
</linearGradient>
<clipPath id="clip0_17_237">
<rect width="65" height="65" fill="white" transform="translate(24 24)"/>
</clipPath>
</defs>
</svg>
