<svg width="113" height="114" viewBox="0 0 113 114" fill="none" xmlns="http://www.w3.org/2000/svg">
<rect x="0.0771484" y="0.0830078" width="112.27" height="113" rx="16" fill="url(#paint0_linear_17_77)"/>
<g clip-path="url(#clip0_17_77)">
<path d="M89.0771 74.4479C86.7128 75.0491 85.2503 74.4743 83.9381 72.5039L74.6065 59.5933L73.2578 57.8058L62.3601 72.5466C61.115 74.3199 59.8089 75.0918 57.4851 74.4641L71.4398 55.7319L58.4479 38.8116C60.6823 38.3769 62.2261 38.5983 63.5971 40.5991L73.2761 53.6702L83.0261 40.6702C84.2753 38.8969 85.6179 38.2225 87.8604 38.8766L82.8229 45.5554L75.9979 54.4421C75.1854 55.4577 75.2971 56.1524 76.0446 57.1335L89.0771 74.4479ZM24.0934 55.4191L25.235 49.8047C28.3428 38.6938 41.0787 34.0768 49.8618 40.9424C54.9948 44.9805 56.2704 50.6924 56.0165 57.0908H27.0834C26.6487 68.608 34.9382 75.559 45.5068 72.0124C49.2139 70.7672 51.3975 67.8646 52.4903 64.2327C53.0448 62.4127 53.9629 62.1283 55.6732 62.6483C54.7998 67.1902 52.8295 70.9846 48.6654 73.3591C42.4437 76.9138 33.5631 75.7641 28.8912 70.8241C26.1084 67.958 24.9587 64.3261 24.4428 60.4424C24.3615 59.8005 24.199 59.1891 24.0771 58.5736C24.088 57.5228 24.0934 56.472 24.0934 55.4211V55.4191ZM27.1362 54.6472H53.2825C53.1118 46.3191 47.9261 40.4041 40.839 40.3533C33.0593 40.2924 27.4734 46.0672 27.1362 54.6472Z" fill="black"/>
</g>
<defs>
<linearGradient id="paint0_linear_17_77" x1="-22" y1="-32" x2="141.585" y2="157.812" gradientUnits="userSpaceOnUse">
<stop stop-color="#FBFF44"/>
<stop offset="0.958333" stop-color="#FEFCD6"/>
</linearGradient>
<clipPath id="clip0_17_77">
<rect width="65" height="65" fill="white" transform="translate(24.0771 24.083)"/>
</clipPath>
</defs>
</svg>
