<svg width="400" height="400" viewBox="0 0 400 400" fill="none" xmlns="http://www.w3.org/2000/svg">
<g clip-path="url(#clip0_9_2)">
<path d="M268.367 298.833L223.417 342.283C215.65 350.067 204.9 353.317 193.033 353.317C181.167 353.317 170.417 350.067 162.633 342.283L90.4333 269.567C82.65 261.783 78.7333 250.4 78.7333 238.517C78.7333 226.633 82.65 215.9 90.4333 208.117L162.417 135.117C170.2 127.333 181.167 124.367 193.033 124.367C204.9 124.367 215.65 127.617 223.417 135.4L268.367 178.833C276.933 187.417 291.117 187.117 300.033 178.2C308.95 169.267 309.25 155.083 300.683 146.517L257.2 102.583C245.973 91.4843 231.853 83.7631 216.45 80.3L257.567 38.5833C266.167 30.0167 265.867 15.8167 256.95 6.90001C248.033 -2.01666 233.833 -2.29999 225.25 6.26667L56.9167 174.617C40.5667 190.983 32.0167 213.567 32.0167 238.533C32.0167 263.5 40.5667 286.783 56.9167 303.117L129.367 375.8C145.717 392.117 168.317 400 193.267 400C218.217 400 240.817 391.467 257.183 375.1L300.667 331.15C309.233 322.583 308.933 308.4 300.017 299.483C291.1 290.567 276.917 290.267 268.367 298.833ZM346.85 216.833H177.767C166.067 216.833 156.6 226.9 156.6 239.267C156.6 251.633 166.067 261.7 177.767 261.7H346.85C358.533 261.7 368.017 251.633 368.017 239.267C368.017 226.9 358.533 216.833 346.85 216.833Z" fill="#FFBB0B"/>
</g>
<defs>
<clipPath id="clip0_9_2">
<rect width="400" height="400" fill="white"/>
</clipPath>
</defs>
</svg>
