<svg width="700" height="700" viewBox="0 0 700 700" fill="none" xmlns="http://www.w3.org/2000/svg">
<path d="M333.777 645.043L348.644 656.237L363.416 644.917C482.206 553.888 537.793 458.275 563.363 384.226C576.103 347.333 581.302 316.06 583.287 293.721C584.28 282.552 584.469 273.609 584.396 267.302C584.359 264.147 584.256 261.65 584.154 259.86C584.104 258.965 584.053 258.247 584.011 257.711C583.991 257.444 583.972 257.222 583.956 257.046C583.951 256.99 583.947 256.938 583.942 256.89L583.936 256.818L583.927 256.73L583.924 256.693C583.923 256.691 583.923 256.689 583.884 256.691C583.884 256.682 583.884 256.673 583.884 256.664L583.92 256.66L583.878 256.228C582.172 139.182 475.575 49.5 350.604 49.5C225.725 49.5 119.194 139.05 117.334 255.969L117.301 256.252L117.33 256.256C117.33 256.265 117.33 256.274 117.329 256.283C117.297 256.281 117.297 256.283 117.297 256.285L117.292 256.322L117.282 256.41C117.275 256.474 117.267 256.55 117.257 256.638C117.238 256.815 117.215 257.038 117.188 257.308C117.136 257.847 117.07 258.573 117.001 259.478C116.863 261.287 116.709 263.814 116.609 267.007C116.408 273.391 116.421 282.444 117.205 293.739C118.773 316.328 123.425 347.931 135.638 385.077C160.161 459.666 214.799 555.456 333.777 645.043ZM389.533 266.448C389.981 268.635 390.228 270.862 390.27 273.098C390.14 278.577 389.015 283.979 386.955 289.037C381.236 298.404 373.392 306.255 364.082 311.951C359.188 314.075 353.917 315.171 348.59 315.171C343.265 315.171 337.996 314.076 333.105 311.953C323.78 306.24 315.917 298.38 310.171 289.005C308.117 283.977 306.993 278.606 306.86 273.158C306.902 270.969 307.142 268.79 307.578 266.648L308.033 264.722C308.639 262.164 309.415 259.651 310.355 257.201C316.105 247.907 323.927 240.105 333.188 234.411C338.054 232.293 343.297 231.2 348.597 231.2C353.898 231.2 359.144 232.293 364.011 234.413C373.261 240.094 381.068 247.891 386.793 257.182C387.729 259.623 388.51 262.153 389.131 264.76L389.533 266.448Z" fill="#2CA9BC" stroke="black" stroke-width="49"/>
</svg>
