<svg width="113" height="114" viewBox="0 0 113 114" fill="none" xmlns="http://www.w3.org/2000/svg">
<rect x="0.0771484" y="0.0830078" width="112.27" height="113" rx="16" fill="url(#paint0_linear_17_53)"/>
<g clip-path="url(#clip0_17_53)">
<path d="M56.374 24.2598L58.1087 27.5179C58.4987 28.1191 58.9212 28.6513 59.4188 29.147C60.8712 30.5993 62.2504 32.1207 63.4894 33.7498C66.4287 37.6091 68.4112 41.8951 69.8269 46.5304C70.676 49.362 71.1371 52.2666 71.1716 55.2038C71.3138 63.9849 68.3035 71.5249 62.2341 77.7913C61.2429 78.7826 60.1826 79.7007 59.0451 80.5173C58.4438 80.5173 58.1594 80.0562 57.9116 79.6316C57.4505 78.8537 57.1682 77.966 57.026 77.0824C56.8127 76.0201 56.6726 74.9577 56.7416 73.8609V73.3652C56.6929 73.2596 56.1627 24.5096 56.374 24.2598Z" fill="#599636"/>
<path d="M56.374 24.152C56.3029 24.0098 56.2318 24.1175 56.1607 24.1866C56.1953 24.8975 55.9475 25.5313 55.5595 26.1366C55.1329 26.7378 54.5682 27.1989 54.0015 27.6945C50.8531 30.4205 48.375 33.7131 46.3904 37.3958C43.7498 42.352 42.3889 47.6638 42.0029 53.2558C41.8262 55.2728 42.6407 62.3903 43.2765 64.4439C45.0112 69.8958 48.1271 74.4641 52.1632 78.4291C53.1545 79.3838 54.2148 80.2694 55.3117 81.1205C55.6306 81.1205 55.6651 80.8361 55.7382 80.6248C55.8781 80.1728 55.9846 79.7112 56.0571 79.2436L56.7681 73.9339L56.374 24.152Z" fill="#6CAC48"/>
<path d="M58.1087 82.6744C58.1798 81.8619 58.5698 81.1875 58.9943 80.5152C58.5677 80.3385 58.2509 79.9871 58.003 79.5951C57.7898 79.2416 57.613 78.8171 57.4749 78.4271C56.9793 76.9402 56.8737 75.3802 56.7315 73.8608V72.9407C56.5548 73.0829 56.5182 74.2854 56.5182 74.4641C56.4148 76.07 56.2017 77.6669 55.8804 79.2436C55.7748 79.8815 55.7037 80.5172 55.3116 81.084C55.3116 81.1551 55.3116 81.2261 55.3462 81.3318C55.984 83.2086 56.1587 85.12 56.2663 87.068V87.779C56.2663 88.628 56.2318 88.4493 56.9366 88.7336C57.221 88.8393 57.5379 88.8758 57.8223 89.0871C58.0356 89.0871 58.0701 88.9104 58.0701 88.7682L57.9645 87.6002V84.3421C57.9299 83.7733 58.0356 83.2086 58.1066 82.6765L58.1087 82.6744Z" fill="#C2BFBF"/>
</g>
<defs>
<linearGradient id="paint0_linear_17_53" x1="-42.4999" y1="-46.8322" x2="147.727" y2="139.069" gradientUnits="userSpaceOnUse">
<stop offset="0.09375" stop-color="#1254FF"/>
<stop offset="0.9375" stop-color="#70F6FF"/>
</linearGradient>
<clipPath id="clip0_17_53">
<rect width="65" height="65" fill="white" transform="translate(24.0771 24.083)"/>
</clipPath>
</defs>
</svg>
