<svg width="1000" height="1000" viewBox="0 0 1000 1000" fill="none" xmlns="http://www.w3.org/2000/svg">
<rect width="1000" height="1000" rx="200" fill="#EAEAEA"/>
<path d="M331.375 254.475H629.938V331.162H416.337V520.625H766.312V555C771.425 554.462 776.625 554.1 782.038 554.1C787.375 554.1 792.525 554.45 797.562 554.975V489.375H447.587V362.412H661.188V223.225H335.788C335.813 224.512 335.937 225.737 335.937 227.05C335.937 235.225 334.225 244.525 331.375 254.475Z" fill="#2D2D2D"/>
<path d="M217.963 445.838L232.487 426.775C241.625 414.65 312.7 319.713 331.375 254.475C334.225 244.525 335.938 235.212 335.938 227.05C335.938 225.75 335.813 224.513 335.788 223.225C334.188 151.313 288.4 105 217.963 105C146.275 105 100 152.912 100 227.05C100 288.85 192.925 412.888 203.537 426.775L217.963 445.838ZM179.675 227.863C179.675 206.763 196.775 189.663 217.875 189.663C238.975 189.663 256.075 206.763 256.075 227.863C256.075 248.963 238.975 266.063 217.875 266.063C196.775 266.063 179.675 248.963 179.675 227.863Z" fill="#3BEC6D"/>
<path d="M766.313 555C703.688 561.562 664.062 607.612 664.062 676.15C664.062 737.95 756.988 861.987 767.6 875.875L782.025 894.925L796.537 875.875C807.075 861.9 900 737.85 900 676.15C900 607.525 860.3 561.462 797.563 554.975C792.513 554.45 787.375 554.1 782.037 554.1C776.625 554.1 771.425 554.462 766.313 555ZM820.15 676.962C820.15 698.062 803.05 715.162 781.95 715.162C760.85 715.162 743.75 698.062 743.75 676.962C743.75 655.862 760.85 638.762 781.95 638.762C803.05 638.762 820.15 655.862 820.15 676.962Z" fill="#DB2B42"/>
</svg>
