<svg width="1000" height="1000" viewBox="0 0 1000 1000" fill="none" xmlns="http://www.w3.org/2000/svg">
<rect width="1000" height="1000" rx="200" fill="#6E3997"/>
<circle cx="500" cy="500" r="386" fill="#FFFF00" stroke="black" stroke-width="28"/>
<g clip-path="url(#clip0_215_13)">
<path d="M801.172 572.994C800.007 576.593 798.271 579.713 797.769 583.021C794.321 605.756 787.17 627.418 778.256 648.437C769.469 669.155 758.216 688.59 744.852 706.773C731.072 725.522 715.427 742.504 697.653 757.479C690.516 763.492 683.041 769.102 675.693 774.861C667.303 781.436 655.404 778.958 649.837 771.118C637.978 754.416 625.972 737.818 614.108 721.119C595.007 694.235 575.893 667.358 556.955 640.358C551.334 632.343 545.388 624.352 541.231 615.57C537.05 606.74 540.807 598.213 548.484 592.352C565.474 579.382 576.811 562.87 579.738 541.168C580.948 532.198 582.668 522.613 592.899 520.007C599.486 518.329 606.814 519.188 613.782 519.516C619.471 519.785 625.098 521.19 630.788 521.676C646.111 522.985 661.462 523.964 676.784 525.275C693.595 526.714 710.384 528.392 727.186 529.939C744.375 531.523 761.585 532.903 778.75 534.71C787.688 535.651 796.895 536.728 800.767 547.447C801.172 553.841 801.172 560.129 800.774 567.064C800.641 568.82 800.907 569.929 801.172 571.037C801.172 571.559 801.172 572.081 801.172 572.994Z" fill="black"/>
<path d="M201.172 546.929C203.977 543.624 206.356 540.023 209.697 538.328C213.773 536.262 218.599 535.233 223.204 534.754C234.107 533.618 245.091 533.275 256.006 532.24C270.288 530.885 284.523 529.047 298.801 527.657C309.134 526.651 319.518 526.176 329.855 525.211C345.106 523.789 360.317 521.896 375.583 520.676C386.169 519.83 396.862 519.013 407.424 519.629C415.111 520.077 420.44 525.908 421.249 534.072C423.476 556.548 433.154 574.749 449.878 589.493C452.322 591.648 455.009 593.544 457.316 595.831C463.734 602.191 464.708 611.738 459.438 619.3C440.156 646.966 420.743 674.539 401.375 702.145C385.705 724.479 370.082 746.847 354.333 769.125C346.506 780.197 335.173 781.591 323.993 773.4C306.456 760.551 290.534 745.85 276.038 729.764C260.389 712.399 247.195 693.2 235.946 672.558C223.971 650.581 215.362 627.387 208.634 603.44C206.183 594.713 205.206 585.574 203.474 576.639C203.272 575.592 202.548 574.646 201.619 573.52C201.172 572.864 201.172 572.342 201.57 571.33C201.703 569.732 201.437 568.623 201.172 567.515C201.172 560.836 201.172 554.157 201.172 546.929Z" fill="black"/>
<path d="M631.25 290.407C621.851 311.025 612.478 331.18 603.14 351.351C588.739 382.459 574.466 413.626 559.924 444.667C554.38 456.5 546.713 458.853 534.374 455.023C524.156 451.852 513.597 449.093 503 448.017C490.578 446.755 478.488 450.486 467.195 455.578C458.785 459.37 447.758 455.788 443.775 447.347C434.215 427.089 424.983 406.676 415.569 386.349C410.024 374.378 404.269 362.504 398.812 350.493C387.523 325.645 376.091 300.855 365.305 275.788C361.239 266.338 366.784 256.286 376.338 252.817C387.969 248.593 399.318 243.41 411.192 240.083C426.605 235.763 442.289 232.059 458.089 229.587C472.661 227.307 487.528 226.228 502.287 225.993C533.381 225.497 563.783 230.58 593.314 240.312C604.887 244.126 616.335 248.472 627.464 253.422C633.032 255.898 636.964 260.219 637.363 267.621C637.816 276.032 635.108 283.003 631.25 290.407Z" fill="black"/>
<path d="M539.544 574.267C520.387 589.533 499.079 593.202 477.527 583.501C452.803 572.371 438.553 550.54 441.567 520.846C444.289 494.025 467.301 471.26 494.564 468.697C513.662 466.902 529.734 472.518 543.188 485.43C553.651 495.472 559.866 508.071 560.939 522.854C562.236 540.739 556.997 556.326 544.616 569.386C543.103 570.982 541.444 572.439 539.544 574.267Z" fill="black"/>
</g>
<defs>
<clipPath id="clip0_215_13">
<rect width="600" height="600" fill="white" transform="translate(200 200)"/>
</clipPath>
</defs>
</svg>
