<svg width="1000" height="1000" viewBox="0 0 1000 1000" fill="none" xmlns="http://www.w3.org/2000/svg">
<rect width="1000" height="1000" rx="200" fill="#3DA6E1"/>
<path d="M249.062 240.156C249.062 247.553 252.001 254.647 257.231 259.878C262.462 265.108 269.556 268.047 276.953 268.047C284.35 268.047 291.444 265.108 296.675 259.878C301.905 254.647 304.844 247.553 304.844 240.156C304.844 232.759 301.905 225.665 296.675 220.435C291.444 215.204 284.35 212.266 276.953 212.266C269.556 212.266 262.462 215.204 257.231 220.435C252.001 225.665 249.062 232.759 249.062 240.156Z" fill="#154B8B"/>
<path d="M382.422 637.187C382.422 640.85 383.143 644.477 384.545 647.861C385.947 651.245 388.001 654.319 390.591 656.909C393.181 659.499 396.255 661.553 399.639 662.955C403.023 664.357 406.65 665.078 410.313 665.078C413.975 665.078 417.602 664.357 420.986 662.955C424.37 661.553 427.444 659.499 430.034 656.909C432.624 654.319 434.678 651.245 436.08 647.861C437.482 644.477 438.203 640.85 438.203 637.187C438.203 633.525 437.482 629.898 436.08 626.514C434.678 623.13 432.624 620.056 430.034 617.466C427.444 614.876 424.37 612.822 420.986 611.42C417.602 610.018 413.975 609.297 410.313 609.297C406.65 609.297 403.023 610.018 399.639 611.42C396.255 612.822 393.181 614.876 390.591 617.466C388.001 620.056 385.947 623.13 384.545 626.514C383.143 629.898 382.422 633.525 382.422 637.187Z" fill="#154B8B"/>
<path d="M128.203 345.469C128.203 352.866 131.142 359.96 136.372 365.19C141.603 370.421 148.697 373.359 156.094 373.359C163.491 373.359 170.585 370.421 175.815 365.19C181.046 359.96 183.984 352.866 183.984 345.469C183.984 338.072 181.046 330.978 175.815 325.747C170.585 320.517 163.491 317.578 156.094 317.578C148.697 317.578 141.603 320.517 136.372 325.747C131.142 330.978 128.203 338.072 128.203 345.469Z" fill="#154B8B"/>
<path d="M503.281 531.875C503.281 535.538 504.003 539.164 505.404 542.548C506.806 545.932 508.86 549.007 511.45 551.597C514.04 554.187 517.115 556.241 520.499 557.643C523.882 559.044 527.509 559.766 531.172 559.766C534.835 559.766 538.461 559.044 541.845 557.643C545.229 556.241 548.304 554.187 550.894 551.597C553.483 549.007 555.538 545.932 556.939 542.548C558.341 539.164 559.062 535.538 559.062 531.875C559.062 528.212 558.341 524.586 556.939 521.202C555.538 517.818 553.483 514.743 550.894 512.153C548.304 509.563 545.229 507.509 541.845 506.107C538.461 504.706 534.835 503.984 531.172 503.984C527.509 503.984 523.882 504.706 520.499 506.107C517.115 507.509 514.04 509.563 511.45 512.153C508.86 514.743 506.806 517.818 505.404 521.202C504.003 524.586 503.281 528.212 503.281 531.875Z" fill="#154B8B"/>
<path d="M117.266 505.391C117.266 509.053 117.987 512.68 119.389 516.064C120.79 519.448 122.845 522.522 125.435 525.112C128.024 527.702 131.099 529.757 134.483 531.158C137.867 532.56 141.494 533.281 145.156 533.281C148.819 533.281 152.446 532.56 155.83 531.158C159.213 529.757 162.288 527.702 164.878 525.112C167.468 522.522 169.522 519.448 170.924 516.064C172.325 512.68 173.047 509.053 173.047 505.391C173.047 501.728 172.325 498.101 170.924 494.717C169.522 491.333 167.468 488.259 164.878 485.669C162.288 483.079 159.213 481.025 155.83 479.623C152.446 478.221 148.819 477.5 145.156 477.5C141.494 477.5 137.867 478.221 134.483 479.623C131.099 481.025 128.024 483.079 125.435 485.669C122.845 488.259 120.79 491.333 119.389 494.717C117.987 498.101 117.266 501.728 117.266 505.391Z" fill="#154B8B"/>
<path d="M514.297 372.031C514.297 379.428 517.235 386.522 522.466 391.753C527.696 396.983 534.79 399.922 542.188 399.922C549.585 399.922 556.679 396.983 561.909 391.753C567.14 386.522 570.078 379.428 570.078 372.031C570.078 364.634 567.14 357.54 561.909 352.31C556.679 347.079 549.585 344.141 542.188 344.141C534.79 344.141 527.696 347.079 522.466 352.31C517.235 357.54 514.297 364.634 514.297 372.031Z" fill="#154B8B"/>
<path d="M222.5 626.25C222.5 629.913 223.221 633.539 224.623 636.923C226.025 640.307 228.079 643.382 230.669 645.972C233.259 648.561 236.333 650.616 239.717 652.018C243.101 653.419 246.728 654.141 250.391 654.141C254.053 654.141 257.68 653.419 261.064 652.018C264.448 650.616 267.522 648.561 270.112 645.972C272.702 643.382 274.757 640.307 276.158 636.923C277.56 633.539 278.281 629.913 278.281 626.25C278.281 622.587 277.56 618.961 276.158 615.577C274.757 612.193 272.702 609.118 270.112 606.528C267.522 603.938 264.448 601.884 261.064 600.482C257.68 599.081 254.053 598.359 250.391 598.359C246.728 598.359 243.101 599.081 239.717 600.482C236.333 601.884 233.259 603.938 230.669 606.528C228.079 609.118 226.025 612.193 224.623 615.577C223.221 618.961 222.5 622.587 222.5 626.25Z" fill="#154B8B"/>
<path d="M408.984 251.172C408.984 254.835 409.706 258.461 411.107 261.845C412.509 265.229 414.563 268.304 417.153 270.894C419.743 273.483 422.818 275.538 426.202 276.939C429.586 278.341 433.212 279.062 436.875 279.062C440.538 279.062 444.164 278.341 447.548 276.939C450.932 275.538 454.007 273.483 456.597 270.894C459.187 268.304 461.241 265.229 462.643 261.845C464.044 258.461 464.766 254.835 464.766 251.172C464.766 247.509 464.044 243.882 462.643 240.499C461.241 237.115 459.187 234.04 456.597 231.45C454.007 228.86 450.932 226.806 447.548 225.404C444.164 224.003 440.538 223.281 436.875 223.281C433.212 223.281 429.586 224.003 426.202 225.404C422.818 226.806 419.743 228.86 417.153 231.45C414.563 234.04 412.509 237.115 411.107 240.499C409.706 243.882 408.984 247.509 408.984 251.172Z" fill="#154B8B"/>
<path d="M211.328 438.672C211.328 473.772 225.271 507.434 250.091 532.253C274.91 557.072 308.572 571.016 343.672 571.016C378.772 571.016 412.434 557.072 437.253 532.253C462.072 507.434 476.016 473.772 476.016 438.672C476.016 403.572 462.072 369.91 437.253 345.091C412.434 320.271 378.772 306.328 343.672 306.328C308.572 306.328 274.91 320.271 250.091 345.091C225.271 369.91 211.328 403.572 211.328 438.672Z" fill="#9BCFDD"/>
<path d="M343.516 582.031C321.719 582.031 300 576.953 279.844 566.953C245.547 549.922 220 520.547 207.813 484.297C195.625 448.047 198.281 409.141 215.313 374.922C232.344 340.625 261.719 315.078 297.969 302.891C334.219 290.703 373.125 293.359 407.344 310.391C441.641 327.422 467.188 356.797 479.375 393.047C504.531 467.969 464.063 549.297 389.219 574.453C374.297 579.531 358.828 582.031 343.516 582.031ZM343.75 317.187C330.703 317.187 317.656 319.297 304.922 323.594C274.141 333.906 249.297 355.625 234.844 384.687C220.391 413.75 218.125 446.641 228.438 477.422C238.75 508.203 260.469 533.047 289.531 547.5C318.594 561.953 351.484 564.219 382.266 553.906C445.781 532.578 480.078 463.594 458.75 400.078C448.438 369.297 426.719 344.453 397.656 330C380.625 321.484 362.266 317.187 343.75 317.187Z" fill="#154B8B"/>
<path d="M609.922 262.5C467.344 262.5 351.797 378.047 351.797 520.625C351.797 522.422 351.875 524.219 351.953 525.938H268.125C198.594 525.938 141.719 582.812 141.719 652.344C141.719 721.875 198.594 778.75 268.125 778.75H585C588.281 778.75 591.406 778.516 594.609 778.281C599.687 778.594 604.766 778.75 609.922 778.75C752.5 778.75 868.047 663.203 868.047 520.625C867.969 378.047 752.422 262.5 609.922 262.5Z" fill="#FCFCFC"/>
<path d="M609.922 789.609C605.234 789.609 600.234 789.453 594.688 789.141C591.563 789.375 588.359 789.609 585 789.609H268.125C231.562 789.609 197.187 775.312 171.172 749.297C145.156 723.281 130.859 688.906 130.859 652.344C130.859 615.781 145.156 581.406 171.172 555.391C197.187 529.375 231.641 515.078 268.125 515.078H340.937C342.344 445.312 370.156 379.922 419.688 330.391C470.469 279.609 538.047 251.562 609.922 251.562C681.797 251.562 749.297 279.531 800.156 330.391C850.938 381.172 878.984 448.75 878.984 520.625C878.984 592.5 851.016 660 800.156 710.859C749.297 761.719 681.719 789.609 609.922 789.609ZM594.609 767.344H595.234C600.625 767.656 605.469 767.812 609.922 767.812C675.938 767.812 738.047 742.109 784.688 695.391C831.406 648.672 857.109 586.641 857.109 520.625C857.109 454.609 831.406 392.5 784.688 345.859C737.969 299.141 675.938 273.438 609.922 273.438C543.906 273.438 481.797 299.141 435.156 345.859C388.438 392.578 362.734 454.609 362.734 520.625C362.734 521.563 362.734 522.5 362.812 523.516C362.812 524.219 362.891 525 362.891 525.703C362.969 528.672 361.797 531.484 359.766 533.594C357.734 535.703 354.922 536.875 351.953 536.875H268.125C237.422 536.875 208.438 548.906 186.563 570.781C164.688 592.656 152.656 621.641 152.656 652.344C152.656 683.047 164.688 712.031 186.563 733.906C208.438 755.781 237.422 767.812 268.125 767.812H585C587.812 767.812 590.625 767.578 593.672 767.344H594.609Z" fill="#144884"/>
</svg>
